# xmcd
#
# Track frame offsets: 
#        150
#        30778
#        54902
#        85914
#        107111
#        123476
#        138755
#        160583
#        179858
#        214822
#        233619
#        256730
#        280389
#        299221
#        315048
#        338460
#
# Disc length: 4787 seconds
#
# Revision: 0
# Processed by: cddbd v1.5.2PL0 Copyright (c) Steve Scherf et al.
# Submitted via: ExactAudioCopy v1.3
#
DISCID=d712b110
DTITLE=Various Artist - Akella Presents - vol. 150 - Rockin' Blues  C
DTITLE=D1
DYEAR=2018
DGENRE=Blues
TTITLE0=Trampled Under Foot - Jonny Cheat
TTITLE1=Rick Springfield - Little Demon
TTITLE2=Carvin Jones Band - Two Long Years
TTITLE3=Stephen Andrew Bahakel - I Can't Complain
TTITLE4=Andre Christovam - I Like it This Way
TTITLE5=Ray Fuller - Big City Woman
TTITLE6=Dragondeer - Same Train
TTITLE7=Big Boy Bloater - Only Fools Know Everything
TTITLE8=Roy Mette - Heartbreak Time
TTITLE9=Frank Raven - Dont Look Back
TTITLE10=Bleu Jackson - Gone This Time
TTITLE11=Legged Woman - Chris Duarte - Big
TTITLE12=Ronnie Baker Brooks - Flavor of the Week
TTITLE13=Shane Dwight - Dust My Broom
TTITLE14=Mark 'Mississippi Slide' Jeghers - Have You Ever Been Mistrea
TTITLE14=ted
TTITLE15=Bjorn Berge - One Kind Favour
EXTD=
EXTT0=
EXTT1=
EXTT2=
EXTT3=
EXTT4=
EXTT5=
EXTT6=
EXTT7=
EXTT8=
EXTT9=
EXTT10=
EXTT11=
EXTT12=
EXTT13=
EXTT14=
EXTT15=
PLAYORDER=
